<?xml version="1.0" encoding="utf-8"?><svg version="1.1" xmlns="http://www.w3.org/2000/svg" x="0px" y="0px" width="122.88px" height="122.88px" viewBox="0 0 122.88 122.88" xml:space="preserve"><g><path class="Icon" fill-rule="evenodd" clip-rule="evenodd" d="M61.44,0c4.16,0,7.53,3.37,7.53,7.53v3.72c15.12,3.08,26.52,16.41,26.52,32.35v30.6l12.07,12.07c1.47,1.47,1.47,3.86,0,5.33 c-0.71,0.71-1.65,1.07-2.59,1.07H17.91c-0.94,0-1.88-0.36-2.59-1.07c-1.47-1.47-1.47-3.86,0-5.33l12.07-12.07V43.6 c0-15.94,11.4-29.27,26.52-32.35V7.53C53.91,3.37,57.28,0,61.44,0L61.44,0z M73.7,100.19c-0.63,3.89-2.58,7.41-5.47,10.07 c-3.34,3.07-7.67,4.72-12.2,4.62h-0.7c-4.53,0.1-8.86-1.55-12.2-4.62c-2.89-2.66-4.84-6.18-5.47-10.07H73.7L73.7,100.19z M61.44,18.77c-13.71,0-24.83,11.12-24.83,24.83v31.8c0,1-0.4,1.96-1.1,2.67l-8.6,8.6h68.06l-8.6-8.6 c-0.71-0.71-1.1-1.67-1.1-2.67v-31.8C86.27,29.89,75.15,18.77,61.44,18.77L61.44,18.77z"/></g></svg>