<svg id="Layer_1" data-name="Layer 1"
xmlns="http://www.w3.org/2000/svg"
xmlns:xlink="http://www.w3.org/1999/xlink"
viewBox="0 0 1920 1080">
<defs>
<style>
.cls-2{fill:#4d4d4d;}
.cls-3{fill:#3fa9f5;}
.cls-4{fill:url(#linear-gradient);}
.cls-5{fill:url(#linear-gradient-2);}
</style>
<linearGradient id="linear-gradient" x1="325.68" y1="456.77"
x2="532.44" y2="688.83" gradientUnits="userSpaceOnUse">
<stop offset="0" stop-color="#fff" stop-opacity="0"/>
<stop offset="0.48" stop-color="#fff" stop-opacity="0.19"/>
<stop offset="1" stop-opacity="0.4"/>
</linearGradient>
<linearGradient id="linear-gradient-2" x1="445.01" y1="350.44"
x2="651.78" y2="582.51" xlink:href="#linear-gradient"/>
</defs>

<path class="cls-2" d="M504.47,526.19a20.51,20.51,0,0,0-29,0L429.07,572.6a44,44,0,0,1-37.27,12.53,43.23,43.23,0,0,1-20.6-8.51,44.17,44.17,0,1,1,57.86-66.48l17.64,17.64h0l15.18-15.17a20.5,20.5,0,0,0,0-29h0l-72-72a42,42,0,0,0-59.35,0h0l46.22,46.22a86.14,86.14,0,1,0,82,144.45l60.92-60.92Z"/>
<path class="cls-3" d="M641.93,479.43a85.43,85.43,0,0,0-38.6-21.54l46.27-46.27a42,42,0,0,0-59.35,0l-65.54,65.54c-1.21,1.07-2.36,2.16-3.5,3.3l-3.05,3.06a20.49,20.49,0,0,0,0,29l15.18,15.18.11.09,20.09-20.1a44.16,44.16,0,1,1-2.67,64.92L533.26,555h0L503.6,584.65l17.61,17.64a86.15,86.15,0,0,0,123.5-1.78C676.93,566.43,675.64,512,641.93,479.43Z"/>
<path class="cls-4" d="M504.47,526.19a20.51,20.51,0,0,0-29,0L429.07,572.6a44,44,0,0,1-37.27,12.53,43.23,43.23,0,0,1-20.6-8.51,44.17,44.17,0,1,1,57.86-66.48l17.64,17.64h0l15.18-15.17a20.5,20.5,0,0,0,0-29h0l-72-72a42,42,0,0,0-59.35,0h0l46.22,46.22a86.14,86.14,0,1,0,82,144.45l60.92-60.92Z"/>
<path class="cls-5" d="M641.93,479.43a85.43,85.43,0,0,0-38.6-21.54l46.27-46.27a42,42,0,0,0-59.35,0l-65.54,65.54c-1.21,1.07-2.36,2.16-3.5,3.3l-3.05,3.06a20.49,20.49,0,0,0,0,29l15.18,15.18.11.09,20.09-20.1a44.16,44.16,0,1,1-2.67,64.92L533.26,555h0L503.6,584.65l17.61,17.64a86.15,86.15,0,0,0,123.5-1.78C676.93,566.43,675.64,512,641.93,479.43Z"/>
<path class="cls-2" d="M779.48,578.69V411.43h-40v204h136.9V596.2a17.51,17.51,0,0,0-17.51-17.51Z"/>
<path class="cls-2" d="M1017.73,486.18q-22.34-22.26-56.4-22.27t-56.47,22.27q-22.4,22.24-22.4,55.46t22.4,55.55q22.42,22.32,56.55,22.32,33.83,0,56.24-22.32t22.41-55.55Q1040.06,508.43,1017.73,486.18ZM991.2,572.44q-11.46,12.09-29.79,12.09t-29.87-12.09Q920,560.35,920,541.72T931.54,511q11.51-12.09,29.87-12.09T991.2,511q11.44,12.09,11.44,30.72T991.2,572.44Z"/>
<path class="cls-2" d="M1167.8,468v17.21q-17.07-21.33-46.52-21.34-31.86,0-52.35,21t-20.47,53.83q0,31.88,20.69,53.42t52.13,21.55q29.29,0,46.52-21.34v17.77q-.32,17.24-9.75,28t-27,10.82q-26.47-.15-38.41-19.06l-33.56,12q21.33,38.83,71.11,38.82,34.13,0,55.11-19.7t21-50.85V468Zm-10.61,99.71Q1145.74,579,1128,579q-18.35,0-29.88-11.24t-11.51-29q0-17.76,11.51-28.94T1128,498.62q17.77,0,29.22,11.16t11.45,28.94Q1168.64,556.51,1157.19,567.75Z"/>
<path class="cls-2" d="M1391.89,439.74q-26.69-28.31-70.91-28.31h-69.21a19.4,19.4,0,0,0-19.4,19.4V557.77H1272V447.27h48.09q26.17,0,42.16,18.06t16,47.23q0,29.73-16,48.21t-42.16,18.49l-70.05-.22a17.66,17.66,0,0,0-17.71,17.66v18.69H1321q44.24,0,70.91-28.59t26.66-73.39Q1418.55,468,1391.89,439.74Z"/>
<path class="cls-2" d="M1599.61,528.13q-8.67-12.74-24.17-19.69,25.3-13.67,25.32-42.53-.29-24.18-18.78-39.32t-48.5-15.16h-77.89a19.4,19.4,0,0,0-19.4,19.4v15h97q12.52-.27,20.42,6.83a25.09,25.09,0,0,1,.42,36.13q-7.74,7.4-20,7.4h-58.74V467.05h-21.46a17.66,17.66,0,0,0-17.66,17.65V615.39H1539q32.31,0,50.78-15.64t18.49-42.1Q1608.29,540.87,1599.61,528.13Zm-39,45q-8.17,7.53-21.83,7.53h-63.43v-52.9H1539q13.67,0,21.69,7.39a24.42,24.42,0,0,1,8,18.78A25,25,0,0,1,1560.57,573.15Z"/>
</svg>




