<svg id="Layer_1" data-name="Layer 1" xmlns="http://www.w3.org/2000/svg" xmlns:xlink="http://www.w3.org/1999/xlink" viewBox="0 0 1080 1080"><defs><style>.cls-1{fill:#fff;}.cls-2{fill:#4d4d4d;}.cls-3{fill:#3fa9f5;}.cls-4{fill:url(#linear-gradient);}.cls-5{fill:url(#linear-gradient-2);}</style><linearGradient id="linear-gradient" x1="282.26" y1="451.1" x2="606.79" y2="815.35" gradientUnits="userSpaceOnUse"><stop offset="0" stop-color="#fff" stop-opacity="0"/><stop offset="0.48" stop-color="#fff" stop-opacity="0.19"/><stop offset="1" stop-opacity="0.4"/></linearGradient><linearGradient id="linear-gradient-2" x1="469.56" y1="284.22" x2="794.09" y2="648.46" xlink:href="#linear-gradient"/></defs><rect class="cls-1" width="1080" height="1080"/><path class="cls-2" d="M562.88,560.06a32.18,32.18,0,0,0-45.5,0l-72.85,72.85A69.11,69.11,0,0,1,386,652.58a67.85,67.85,0,0,1-32.33-13.36,69.33,69.33,0,1,1,90.81-104.35l27.7,27.7h0L496,538.74a32.17,32.17,0,0,0,0-45.51h0l-113-113a65.88,65.88,0,0,0-93.16,0h0l72.55,72.55A135.19,135.19,0,1,0,491.1,679.5l95.61-95.61Z"/><path class="cls-3" d="M778.64,486.67a134.09,134.09,0,0,0-60.59-33.81l72.62-72.62a65.85,65.85,0,0,0-93.15,0L594.65,483.11c-1.89,1.67-3.7,3.39-5.5,5.18l-4.79,4.79a32.19,32.19,0,0,0,0,45.51l23.84,23.83.17.15L639.9,531a69.32,69.32,0,1,1-4.18,101.91l-27.64-27.69,0,0-46.54,46.57,27.63,27.68A135.22,135.22,0,0,0,783,676.71C833.58,623.22,831.55,537.84,778.64,486.67Z"/><path class="cls-4" d="M562.88,560.06a32.18,32.18,0,0,0-45.5,0l-72.85,72.85A69.11,69.11,0,0,1,386,652.58a67.85,67.85,0,0,1-32.33-13.36,69.33,69.33,0,1,1,90.81-104.35l27.7,27.7h0L496,538.74a32.17,32.17,0,0,0,0-45.51h0l-113-113a65.88,65.88,0,0,0-93.16,0h0l72.55,72.55A135.19,135.19,0,1,0,491.1,679.5l95.61-95.61Z"/><path class="cls-5" d="M778.64,486.67a134.09,134.09,0,0,0-60.59-33.81l72.62-72.62a65.85,65.85,0,0,0-93.15,0L594.65,483.11c-1.89,1.67-3.7,3.39-5.5,5.18l-4.79,4.79a32.19,32.19,0,0,0,0,45.51l23.84,23.83.17.15L639.9,531a69.32,69.32,0,1,1-4.18,101.91l-27.64-27.69,0,0-46.54,46.57,27.63,27.68A135.22,135.22,0,0,0,783,676.71C833.58,623.22,831.55,537.84,778.64,486.67Z"/></svg>